#!OML:ASF E:\CV Data\Top Level 1\Subject 1\Session 1\player.ASF
:FULLY-SPECIFIED
:DEGREES
624
root 4.78697 17.8156 15.2087 9.05387 -1.48971 -7.47823
lowerback 7.20026 0.333999 4.21546
upperback 0.122618 0.917577 3.08309
thorax -3.90137 0.403189 0.731833
lowerneck -16.3172 -6.09544 -12.025
upperneck 29.8396 -7.23916 6.38599
head 13.5059 -3.71156 3.36686
rclavicle 3.95085e-015 -2.57426e-014
rhumerus -36.8354 -5.10549 -83.5289
rradius 35.7259
rwrist -16.4531
rhand -25.9646 0.965768
rfingers 7.12502
rthumb 0.579918 -29.0132
lclavicle 3.95085e-015 -2.57426e-014
lhumerus -41.027 7.62396 84.1964
lradius 37.4067
lwrist 2.15494
lhand -18.3937 7.06309
lfingers 7.12502
lthumb 7.89035 36.8958
rfemur -14.9214 4.95859 25.0651
rtibia 17.7099
rfoot -8.47769 -9.67955
rtoes 5.55924
lfemur -14.8609 -1.61654 -9.30447
ltibia 18.7953
lfoot -6.78396 1.55252
ltoes -4.39856
625
root 4.79093 17.8159 15.2246 9.10398 -1.51463 -7.47491
lowerback 7.19533 0.33907 4.2134
upperback 0.116224 0.924004 3.07955
thorax -3.90511 0.406272 0.728673
lowerneck -16.318 -6.10142 -12.0339
upperneck 29.8099 -7.24461 6.3895
head 13.4946 -3.71406 3.36813
rclavicle 1.56543e-015 1.68967e-014
rhumerus -36.8943 -5.10633 -83.5946
rradius 35.6247
rwrist -16.3835
rhand -25.9646 0.922261
rfingers 7.12502
rthumb 0.579972 -29.0567
lclavicle 1.56543e-015 1.68967e-014
lhumerus -41.1229 7.70221 84.2434
lradius 37.157
lwrist 1.9777
lhand -18.248 7.07365
lfingers 7.12502
lthumb 8.031 36.9011
rfemur -14.9108 4.95451 25.045
rtibia 17.6892
rfoot -8.51608 -9.65594
rtoes 5.52453
lfemur -14.8116 -1.6614 -9.32409
ltibia 18.7316
lfoot -6.81423 1.64225
ltoes -4.35706
626
root 4.79495 17.816 15.2397 9.14884 -1.53728 -7.48077
lowerback 7.19902 0.344195 4.22154
upperback 0.109875 0.931978 3.07748
thorax -3.9135 0.409873 0.72114
lowerneck -16.3159 -6.10804 -12.0426
upperneck 29.7774 -7.25183 6.39466
head 13.4819 -3.71711 3.36971
rclavicle 1.01877e-015 1.78906e-015
rhumerus -36.9486 -5.11665 -83.6529
rradius 35.5199
rwrist -16.3355
rhand -25.9613 0.873638
rfingers 7.12502
rthumb 0.583138 -29.1053
lclavicle 1.01877e-015 1.78906e-015
lhumerus -41.2117 7.77482 84.2863
lradius 36.9163
lwrist 1.83379
lhand -18.1167 7.08169
lfingers 7.12502
lthumb 8.15774 36.9042
rfemur -14.8948 4.96388 25.0333
rtibia 17.6657
rfoot -8.55427 -9.64372
rtoes 5.52913
lfemur -14.7658 -1.70057 -9.33244
ltibia 18.6772
lfoot -6.84455 1.71926
ltoes -4.31218
627
root 4.79895 17.8162 15.2541 9.19259 -1.55926 -7.49347
lowerback 7.20665 0.349112 4.23452
upperback 0.101233 0.940581 3.07838
thorax -3.92646 0.413633 0.713891
lowerneck -16.3068 -6.1122 -12.0482
upperneck 29.7416 -7.25578 6.3957
head 13.4656 -3.71903 3.36976
rclavicle -7.67806e-015 3.97569e-015
rhumerus -37.0049 -5.12751 -83.7032
rradius 35.4182
rwrist -16.3041
rhand -25.9553 0.821418
rfingers 7.12502
rthumb 0.588915 -29.1575
lclavicle -7.67806e-015 3.97569e-015
lhumerus -41.2994 7.84855 84.3245
lradius 36.6876
lwrist 1.70942
lhand -17.9983 7.07965
lfingers 7.12502
lthumb 8.27199 36.8977
rfemur -14.8758 4.98674 25.0274
rtibia 17.636
rfoot -8.58965 -9.6419
rtoes 5.56353
lfemur -14.7278 -1.73005 -9.33245
ltibia 18.6329
lfoot -6.87779 1.78182
ltoes -4.26371
628
root 4.80283 17.8165 15.2677 9.23629 -1.57998 -7.50939
lowerback 7.21503 0.353211 4.24712
upperback 0.0910208 0.948304 3.08179
thorax -3.94155 0.416943 0.709543
lowerneck -16.3001 -6.11172 -12.0455
upperneck 29.7113 -7.25249 6.3877
head 13.4504 -3.71803 3.36614
rclavicle 2.93207e-015 -2.21645e-014
rhumerus -37.0608 -5.13399 -83.7469
rradius 35.3185
rwrist -16.285
rhand -25.94 0.767201
rfingers 7.12502
rthumb 0.603691 -29.2117
lclavicle 2.93207e-015 -2.21645e-014
lhumerus -41.3848 7.92649 84.3569
lradius 36.4698
lwrist 1.59285
lhand -17.8896 7.09177
lfingers 7.12502
lthumb 8.3769 36.9057
rfemur -14.8545 5.02708 25.0222
rtibia 17.5981
rfoot -8.62543 -9.65366
rtoes 5.6438
lfemur -14.6968 -1.74717 -9.32888
ltibia 18.5959
lfoot -6.91417 1.82903
ltoes -4.22929
629
root 4.80656 17.8169 15.2807 9.28062 -1.59546 -7.52371
lowerback 7.2225 0.356258 4.25629
upperback 0.0808994 0.954293 3.08546
thorax -3.95612 0.419469 0.707577
lowerneck -16.2882 -6.10848 -12.0404
upperneck 29.6766 -7.24657 6.38047
head 13.4318 -3.71557 3.3629
rclavicle -3.42904e-015 1.90833e-014
rhumerus -37.1131 -5.14289 -83.7839
rradius 35.2218
rwrist -16.265
rhand -25.9165 0.710101
rfingers 7.12502
rthumb 0.626393 -29.2687
lclavicle -3.42904e-015 1.90833e-014
lhumerus -41.4648 8.00482 84.3837
lradius 36.2649
lwrist 1.47654
lhand -17.7866 7.11388
lfingers 7.12502
lthumb 8.47632 36.9238
rfemur -14.8311 5.07554 25.0146
rtibia 17.5521
rfoot -8.65699 -9.67732
rtoes 5.7308
lfemur -14.6741 -1.75932 -9.32563
ltibia 18.5632
lfoot -6.95045 1.86238
ltoes -4.18748
